<?xml version="1.0" standalone="no"?>
<!DOCTYPE svg PUBLIC "-//W3C//DTD SVG 20010904//EN"
 "http://www.w3.org/TR/2001/REC-SVG-20010904/DTD/svg10.dtd">
<svg version="1.0" xmlns="http://www.w3.org/2000/svg"
 width="2418.000000pt" height="1584.000000pt" viewBox="0 0 2418.000000 1584.000000"
 preserveAspectRatio="xMidYMid meet">
<metadata>
Created by potrace 1.10, written by Peter Selinger 2001-2011
</metadata>
<g transform="translate(0.000000,1584.000000) scale(0.100000,-0.100000)"
fill="#000000" stroke="none">
<path d="M7301 14609 c-7 -19 -16 -54 -21 -79 -13 -67 -31 -131 -46 -168 -8
-18 -14 -45 -14 -60 -1 -15 -7 -38 -15 -52 -8 -14 -15 -38 -15 -55 0 -16 -7
-41 -15 -55 -8 -14 -14 -36 -15 -49 0 -13 -7 -44 -14 -70 -8 -25 -22 -73 -31
-106 -9 -33 -21 -73 -27 -90 -6 -16 -13 -48 -17 -70 -4 -22 -13 -50 -19 -62
-7 -12 -12 -33 -12 -46 0 -14 -7 -41 -15 -60 -8 -20 -15 -50 -15 -67 0 -17 -5
-30 -12 -30 -665 -4 -757 -9 -908 -45 -122 -30 -254 -89 -349 -157 -23 -16
-23 -17 -18 -200 5 -189 18 -291 41 -318 21 -24 25 -45 36 -215 5 -88 14 -194
20 -235 5 -41 15 -131 21 -200 11 -131 31 -357 48 -550 6 -63 15 -160 21 -215
6 -55 15 -152 21 -215 46 -523 53 -575 73 -595 9 -9 13 -21 10 -26 -15 -25 8
-59 54 -80 26 -11 61 -27 79 -35 17 -8 37 -14 45 -14 8 0 18 -4 24 -9 12 -11
141 -51 165 -51 10 0 20 -4 23 -9 3 -5 59 -14 123 -21 181 -20 393 1 583 57
30 9 64 22 75 29 11 8 25 14 32 14 7 0 35 16 63 36 40 29 50 42 50 64 0 18 8
35 22 44 18 13 24 30 30 89 4 39 14 135 23 212 8 77 19 190 25 250 5 61 12
124 16 140 3 17 12 95 20 175 16 160 35 339 59 560 32 294 45 429 60 589 13
149 17 167 39 190 47 51 49 65 54 301 l4 225 -48 31 c-82 52 -151 85 -204 99
-14 3 -34 10 -45 15 -28 13 -119 31 -195 38 -65 7 -65 7 -63 37 1 17 9 46 16
65 14 34 29 85 46 160 5 19 16 60 25 90 8 30 21 75 27 100 6 25 18 60 25 78 8
18 14 44 14 58 0 14 5 35 12 47 6 12 15 40 19 62 4 22 12 54 17 70 6 17 18 57
27 90 9 33 23 81 31 106 8 26 14 55 14 66 0 11 7 28 15 39 19 25 19 78 0 94
-8 7 -35 15 -59 17 -42 5 -44 4 -55 -28z m-317 -1184 c3 -8 1 -26 -4 -39 l-9
-25 -213 6 c-212 5 -295 0 -478 -32 -177 -31 -174 -30 -295 -71 -23 -8 -47
-14 -55 -14 -8 0 -28 -11 -45 -24 l-29 -23 42 -22 c22 -11 54 -21 70 -21 16 0
51 -7 78 -15 27 -8 66 -15 86 -15 20 0 70 -7 110 -16 99 -23 827 -26 898 -5
25 8 72 17 105 21 122 16 241 47 270 72 11 10 -28 40 -65 50 -14 3 -38 11 -55
16 -80 28 -224 62 -263 62 -48 0 -57 13 -43 59 13 46 22 49 91 27 25 -8 68
-19 95 -24 70 -14 133 -31 153 -41 139 -68 175 -88 189 -103 14 -15 15 -35 10
-135 -16 -289 -17 -296 -46 -320 -14 -12 -32 -22 -40 -23 -7 0 -36 -7 -65 -16
-109 -34 -122 -38 -166 -45 -51 -9 -135 -26 -197 -39 -141 -32 -439 -43 -668
-26 -114 8 -337 40 -390 56 -187 57 -238 84 -255 135 -7 21 -12 113 -13 227
l-2 193 72 41 c74 42 245 104 287 104 13 0 37 5 54 11 45 15 244 26 528 28
216 1 253 -1 258 -14z m201 -212 c28 -9 25 -10 -40 -17 -154 -17 -989 -7 -971
12 22 21 949 26 1011 5z m-1250 -544 c76 -33 412 -87 673 -108 201 -16 607 40
849 116 46 15 86 24 89 20 4 -3 1 -34 -6 -69 -12 -62 -30 -217 -50 -433 -5
-60 -12 -123 -16 -140 -3 -16 -12 -93 -19 -170 -32 -321 -44 -432 -50 -465 -3
-19 -10 -82 -16 -140 -5 -58 -16 -166 -24 -240 -8 -74 -21 -201 -28 -282 -13
-134 -17 -150 -41 -178 -14 -17 -26 -42 -26 -54 0 -38 -59 -74 -180 -110 -30
-10 -68 -21 -85 -26 -52 -16 -195 -33 -320 -37 -112 -4 -156 0 -270 28 -22 6
-60 15 -85 21 -25 5 -49 14 -55 19 -5 5 -15 9 -23 9 -7 0 -32 8 -55 18 -23 10
-61 27 -84 37 -29 12 -43 24 -43 37 0 11 -8 38 -19 61 -13 30 -20 78 -25 162
-4 66 -11 152 -16 190 -6 39 -15 126 -20 195 -6 69 -17 195 -25 280 -16 172
-39 413 -89 965 -8 88 -20 193 -26 233 -15 93 -10 109 27 89 16 -8 42 -21 58
-28z"/>
<path d="M5715 9923 c-11 -3 -24 -9 -29 -14 -6 -5 -17 -9 -27 -9 -25 0 -104
-65 -128 -105 -29 -50 -29 -135 1 -184 39 -67 83 -105 200 -176 167 -102 184
-115 225 -172 59 -83 41 -181 -41 -221 -34 -17 -55 -19 -121 -15 -120 7 -185
44 -212 120 -37 102 -37 103 -9 132 24 25 25 28 10 49 -8 12 -23 22 -33 22
-36 0 -41 -20 -41 -157 l0 -132 33 -18 c97 -51 157 -64 282 -61 l120 3 60 41
c134 92 143 237 20 359 -34 34 -175 136 -233 170 -52 29 -123 90 -141 119 -28
45 -27 113 2 147 49 58 153 76 247 43 73 -25 106 -56 125 -119 17 -51 17 -57
1 -73 -20 -23 -21 -56 -1 -72 12 -10 20 -9 40 4 28 18 30 41 19 178 l-7 75
-48 22 c-27 11 -57 21 -67 21 -10 0 -22 4 -27 9 -11 11 -190 23 -220 14z"/>
<path d="M4550 9901 c-106 -38 -186 -109 -235 -207 -83 -169 -67 -415 37 -560
34 -48 106 -103 172 -133 39 -17 68 -21 146 -21 111 0 158 15 247 81 49 37
113 117 113 142 0 7 6 21 13 32 18 27 40 145 38 203 -7 242 -119 411 -312 471
-50 16 -166 12 -219 -8z m202 -42 c33 -7 58 -22 87 -52 23 -22 41 -46 41 -53
0 -7 6 -25 14 -41 17 -33 46 -183 46 -233 0 -55 -12 -67 -53 -52 -45 16 -396
17 -431 1 -58 -27 -70 32 -37 187 22 105 52 166 102 206 38 31 129 59 164 52
11 -2 41 -9 67 -15z m186 -501 c3 -28 -28 -153 -51 -208 -9 -19 -28 -47 -44
-61 -58 -52 -77 -59 -173 -59 -78 0 -95 3 -128 24 -48 31 -75 62 -94 111 -21
53 -51 192 -45 208 3 9 69 12 268 11 l264 -2 3 -24z"/>
<path d="M6500 9905 c-7 -8 -10 -61 -8 -136 l3 -124 29 -3 c46 -6 62 35 26 65
-25 21 -25 46 -2 85 29 50 83 73 219 93 40 6 44 5 53 -20 15 -40 13 -747 -2
-780 -7 -15 -29 -35 -50 -46 -37 -19 -50 -43 -27 -51 6 -2 40 1 76 6 42 6 89
6 136 -1 40 -5 78 -8 85 -5 23 8 12 32 -21 45 -71 30 -67 6 -67 440 0 216 4
398 8 405 6 9 22 10 68 3 135 -21 169 -40 205 -110 l22 -44 -23 -17 c-29 -22
-24 -64 8 -68 45 -7 50 9 45 136 -2 64 -6 122 -8 128 -5 16 -761 15 -775 -1z"/>
<path d="M7969 9913 c-56 -4 -57 -4 -73 -46 -9 -24 -16 -49 -16 -58 0 -8 -7
-25 -16 -37 -19 -27 -12 -54 18 -67 15 -7 25 -22 29 -45 4 -19 17 -60 29 -90
12 -30 25 -70 30 -88 4 -18 12 -38 17 -45 19 -26 45 -118 39 -141 -4 -18 -1
-25 14 -29 13 -3 20 -14 20 -29 0 -13 6 -32 13 -43 7 -11 19 -43 26 -71 12
-50 11 -53 -13 -77 -14 -15 -26 -34 -26 -43 0 -14 5 -15 33 -8 41 10 146 10
215 -1 64 -10 72 10 16 40 -53 28 -86 85 -114 193 -4 18 -12 38 -18 45 -5 7
-12 26 -15 42 -3 17 -15 57 -27 90 -12 33 -26 74 -30 90 -5 17 -18 55 -30 85
-12 30 -26 73 -31 95 -6 22 -14 44 -20 50 -5 5 -9 18 -9 29 0 11 -5 35 -12 53
-10 28 -10 36 5 50 15 16 18 16 36 -1 12 -11 27 -15 39 -12 52 17 18 78 -40
74 -18 -1 -58 -3 -89 -5z"/>
<path d="M8765 9899 c-22 -23 -18 -38 10 -51 22 -10 29 -8 50 12 14 13 27 22
29 19 28 -32 31 -65 35 -339 5 -423 -14 -528 -109 -614 -32 -29 -46 -35 -63
-30 -49 17 -62 11 -62 -26 0 -32 3 -35 33 -38 49 -5 173 60 222 116 94 107
110 190 110 587 0 282 1 303 19 319 17 16 20 16 49 -1 25 -14 32 -15 46 -4 19
16 21 47 4 58 -7 4 -91 8 -186 8 -146 0 -175 -2 -187 -16z"/>
<path d="M7820 9682 c0 -10 -7 -27 -15 -38 -8 -10 -15 -26 -15 -34 0 -8 -9
-33 -20 -55 -11 -22 -19 -50 -20 -62 0 -12 -5 -23 -11 -25 -5 -2 -13 -22 -16
-46 -3 -23 -9 -42 -13 -42 -4 0 -11 -16 -15 -36 -3 -20 -10 -44 -15 -53 -20
-36 -40 -85 -40 -94 0 -29 -64 -138 -87 -149 -29 -15 -51 -43 -40 -54 3 -4 34
-2 67 3 43 7 82 6 130 -2 38 -7 74 -8 81 -4 16 9 4 39 -15 39 -29 0 -86 34
-93 54 -8 25 -6 61 7 96 4 14 11 37 14 53 l6 27 128 0 c173 0 202 10 145 47
-22 14 -49 18 -135 18 -116 0 -119 2 -93 51 8 16 15 36 15 44 0 8 7 24 15 34
8 11 15 30 15 42 0 13 4 25 9 28 5 4 12 24 16 46 4 22 11 42 16 46 5 3 9 23 9
45 0 28 -4 39 -15 39 -8 0 -15 -8 -15 -18z"/>
<path d="M5035 8450 c-6 -10 50 -90 64 -90 4 0 18 -18 31 -40 28 -44 54 -49
58 -10 1 18 -12 40 -48 80 -27 30 -50 58 -50 62 0 12 -48 10 -55 -2z"/>
<path d="M5154 8445 c-8 -19 3 -35 25 -35 22 0 45 25 36 40 -9 15 -55 12 -61
-5z"/>
<path d="M5634 8447 c-7 -20 3 -37 22 -37 18 0 18 24 -1 40 -12 10 -16 9 -21
-3z"/>
<path d="M5805 8449 c-4 -5 -4 -21 -1 -35 10 -37 40 -28 44 14 3 26 0 32 -17
32 -11 0 -23 -5 -26 -11z"/>
<path d="M5983 8443 c-7 -17 5 -30 32 -35 18 -3 20 -10 17 -71 l-4 -69 29 4
c27 3 28 4 29 68 2 98 1 96 23 76 18 -17 20 -17 30 1 15 29 -3 52 -28 36 -10
-6 -22 -9 -26 -5 -14 14 -96 10 -102 -5z"/>
<path d="M6279 8453 c-5 -26 4 -179 10 -186 4 -4 15 -5 24 -1 14 5 17 22 17
100 0 94 0 94 -25 94 -14 0 -26 -3 -26 -7z"/>
<path d="M6474 8447 c-3 -8 -4 -49 -2 -93 3 -76 4 -79 28 -79 20 0 25 6 32 40
5 22 16 46 25 53 15 11 15 12 1 12 -17 0 -35 36 -24 47 10 10 -15 33 -36 33
-10 0 -21 -6 -24 -13z"/>
<path d="M6554 8449 c-10 -17 23 -46 37 -32 7 7 9 19 6 27 -7 18 -33 21 -43 5z"/>
<path d="M6734 8446 c-3 -8 15 -35 40 -62 25 -27 48 -55 51 -64 6 -15 54 -55
59 -48 2 1 6 12 10 23 4 15 -6 34 -39 70 -25 28 -45 53 -45 57 -1 29 -66 50
-76 24z"/>
<path d="M6854 8445 c-10 -24 12 -42 34 -29 24 16 21 38 -6 42 -13 2 -25 -3
-28 -13z"/>
<path d="M7037 8446 c-3 -8 0 -22 7 -31 11 -15 13 -15 25 -1 15 18 8 46 -13
46 -7 0 -16 -6 -19 -14z"/>
<path d="M7097 8454 c-4 -4 -7 -47 -7 -95 0 -63 4 -88 13 -92 31 -12 38 9 35
99 -2 71 -6 89 -18 92 -9 1 -19 0 -23 -4z"/>
<path d="M7154 8445 c-4 -9 -2 -21 4 -27 15 -15 44 -1 40 19 -4 23 -36 29 -44
8z"/>
<path d="M8034 8446 c-3 -8 -1 -23 5 -35 16 -29 13 -64 -9 -116 -25 -57 -25
-55 3 -55 14 0 30 12 45 34 20 29 23 44 20 107 -3 72 -4 74 -31 77 -17 2 -29
-2 -33 -12z"/>
<path d="M8253 8452 c-20 -13 2 -153 28 -174 23 -20 46 -23 68 -9 19 12 6 41
-19 41 -21 0 -21 0 -24 95 -1 42 -4 50 -21 53 -11 1 -25 -1 -32 -6z"/>
<path d="M8353 8444 c-3 -8 -1 -20 5 -26 16 -16 42 -2 42 22 0 24 -38 28 -47
4z"/>
<path d="M4775 8442 c-16 -11 -45 -60 -45 -75 0 -24 31 -77 45 -77 15 0 25 42
23 99 -1 19 4 37 10 39 7 2 12 8 12 13 0 11 -31 12 -45 1z"/>
<path d="M4849 8445 c-7 -6 -2 -156 6 -163 3 -3 18 6 32 21 35 35 37 86 3 122
-23 25 -32 29 -41 20z"/>
<path d="M5545 8428 c-16 -22 -15 -24 29 -64 26 -22 46 -48 46 -57 0 -23 -16
-21 -40 3 -28 28 -42 25 -38 -7 3 -27 6 -28 60 -30 51 -2 58 1 64 20 12 33 6
49 -31 82 -18 17 -35 39 -37 50 -5 28 -33 30 -53 3z"/>
<path d="M7533 8423 c-32 -37 -30 -87 4 -119 30 -28 42 -22 42 21 1 73 2 97 4
108 4 22 -28 16 -50 -10z"/>
<path d="M7610 8441 c0 -6 5 -13 10 -16 6 -3 10 -28 10 -55 0 -26 3 -55 6 -64
9 -24 33 -19 44 10 17 44 12 83 -15 109 -24 25 -55 33 -55 16z"/>
<path d="M8534 8424 c-6 -24 -1 -33 40 -68 25 -23 46 -44 46 -48 0 -15 -48 -8
-54 7 -8 21 -24 19 -31 -5 -12 -36 9 -48 67 -39 79 13 89 42 31 95 -20 19 -40
34 -44 34 -4 0 -9 10 -11 22 -5 34 -36 35 -44 2z"/>
<path d="M8620 8441 c0 -21 13 -41 26 -41 8 0 14 10 14 25 0 18 -5 25 -20 25
-11 0 -20 -4 -20 -9z"/>
<path d="M5051 8303 c-10 -21 -9 -28 1 -34 16 -11 20 -11 37 0 12 8 13 14 3
35 -15 33 -26 33 -41 -1z"/>
<path d="M6581 8311 c-16 -12 -22 -24 -18 -35 9 -23 24 -20 43 10 22 33 7 49
-25 25z"/>
<path d="M6741 8308 c-12 -30 9 -53 38 -43 28 9 27 29 -4 49 -24 16 -26 16
-34 -6z"/>
</g>
</svg>
