<?xml version="1.0" standalone="no"?>
<!DOCTYPE svg PUBLIC "-//W3C//DTD SVG 20010904//EN"
 "http://www.w3.org/TR/2001/REC-SVG-20010904/DTD/svg10.dtd">
<svg version="1.0" xmlns="http://www.w3.org/2000/svg"
 width="300.000000pt" height="200.000000pt" viewBox="0 0 300.000000 200.000000"
 preserveAspectRatio="xMidYMid meet">
<metadata>
Created by potrace 1.10, written by Peter Selinger 2001-2011
</metadata>
<g transform="translate(0.000000,200.000000) scale(0.100000,-0.100000)"
fill="#000000" stroke="none">
<path d="M271 1930 c-1 -44 -6 -81 -13 -88 -9 -9 -9 -18 0 -37 13 -29 16 -119
4 -111 -5 3 -9 -14 -9 -37 -1 -36 0 -38 7 -17 8 21 9 19 6 -15 -1 -22 4 -51
11 -65 12 -23 13 -18 13 55 -2 152 6 350 14 364 7 11 10 11 17 0 6 -10 9 -10
9 -2 0 18 -19 26 -34 13 -11 -8 -15 -8 -19 2 -3 7 -6 -21 -6 -62z"/>
<path d="M804 1984 c3 -9 6 -27 6 -40 0 -13 3 -24 8 -24 4 0 6 18 4 40 -2 22
-9 40 -14 40 -6 0 -7 -7 -4 -16z"/>
<path d="M2242 1972 c-19 -26 -21 -45 -22 -183 -1 -85 2 -154 7 -154 4 0 7 7
6 15 -1 8 7 26 17 40 18 26 18 26 -3 39 -19 12 -19 14 -4 26 9 7 17 25 17 41
0 22 -3 26 -10 14 -6 -9 -10 -10 -10 -3 0 6 4 14 9 17 5 3 7 15 4 26 -3 11
-10 17 -16 13 -6 -4 -7 -1 -2 8 5 7 10 29 12 48 2 18 9 43 14 53 17 32 3 32
-19 0z"/>
<path d="M2830 1788 c0 -177 2 -220 16 -246 8 -18 20 -29 26 -26 7 4 7 9 0 13
-6 4 -12 93 -15 230 -3 135 -9 227 -15 233 -8 8 -11 -54 -12 -204z"/>
<path d="M1395 1920 c-15 -7 -10 -9 23 -9 23 -1 42 4 42 9 0 12 -37 12 -65 0z"/>
<path d="M1472 1924 c3 -2 32 -7 64 -10 33 -3 75 -10 94 -15 40 -10 56 -11 47
-3 -10 10 -81 25 -146 29 -35 3 -62 2 -59 -1z"/>
<path d="M1300 1900 c-69 -22 -110 -41 -110 -51 0 -4 21 2 48 13 26 12 67 26
92 33 24 6 40 14 35 17 -6 3 -35 -2 -65 -12z"/>
<path d="M2678 1913 c17 -2 47 -2 65 0 17 2 3 4 -33 4 -36 0 -50 -2 -32 -4z"/>
<path d="M2568 1904 c-5 -4 -8 -21 -8 -38 0 -21 3 -27 11 -19 6 6 9 23 7 38
-2 15 -6 23 -10 19z"/>
<path d="M1690 1891 c0 -4 17 -13 38 -20 20 -8 45 -20 55 -29 9 -8 17 -12 17
-8 0 5 68 -41 127 -86 9 -7 9 -4 0 15 -6 14 -15 23 -19 21 -4 -3 -16 3 -26 13
-36 34 -192 111 -192 94z"/>
<path d="M1990 1893 c-25 -4 -25 -4 -22 -98 2 -63 0 -95 -7 -95 -7 0 -11 -46
-11 -135 0 -82 4 -135 10 -135 10 0 17 24 22 82 3 27 1 34 -7 28 -8 -7 -11 -3
-10 12 1 12 6 23 12 25 6 2 7 21 2 51 -4 27 -3 55 3 65 13 25 16 166 3 171
-18 6 2 17 41 22 29 4 35 3 24 -5 -8 -6 -10 -11 -5 -12 21 -1 47 -8 51 -11 2
-2 4 -48 5 -101 1 -53 5 -97 10 -97 12 0 15 30 8 90 -3 30 -5 72 -5 92 1 33
-3 39 -28 48 -29 10 -48 11 -96 3z"/>
<path d="M857 1791 c2 -78 13 -113 13 -43 0 42 0 42 38 42 43 0 68 -20 82 -66
7 -25 8 -22 9 23 1 79 -2 83 -74 83 -53 0 -64 3 -67 18 -2 9 -3 -16 -1 -57z"/>
<path d="M1170 1840 c0 -5 -5 -10 -10 -10 -14 0 -93 -58 -103 -76 -5 -8 20 6
55 31 57 43 79 65 64 65 -3 0 -6 -4 -6 -10z"/>
<path d="M321 1785 c-1 -27 -2 -92 -3 -144 0 -92 1 -94 31 -125 29 -28 36 -31
103 -32 65 -1 66 0 12 3 -49 3 -66 9 -84 28 -13 14 -29 25 -37 25 -17 0 -18
131 -1 148 9 9 9 12 0 12 -7 0 -12 25 -15 68 -3 59 -3 61 -6 17z"/>
<path d="M2480 1799 c-19 -16 -54 -42 -77 -57 -23 -15 -43 -31 -44 -37 -2 -5
-9 -9 -15 -7 -6 1 -17 -5 -24 -13 -7 -8 -9 -15 -5 -15 4 0 1 -8 -6 -17 -18
-22 53 30 107 78 23 20 51 42 62 48 17 9 51 52 40 51 -2 0 -19 -14 -38 -31z"/>
<path d="M791 1787 c-6 -14 -15 -28 -21 -32 -5 -3 -8 -11 -4 -16 3 -6 -2 -17
-12 -24 -15 -11 -16 -14 -4 -15 25 0 78 94 59 105 -5 4 -13 -5 -18 -18z"/>
<path d="M540 1790 c0 -5 -35 -11 -77 -13 l-78 -3 83 -2 c67 -2 82 1 82 13 0
8 -2 15 -5 15 -3 0 -5 -4 -5 -10z"/>
<path d="M2337 1752 c-39 -40 -52 -68 -16 -36 22 19 63 74 57 74 -2 0 -21 -17
-41 -38z"/>
<path d="M1400 1737 c-64 -12 -86 -24 -176 -100 -18 -15 -35 -41 -39 -56 -4
-20 -12 -28 -23 -26 -9 1 -11 0 -4 -2 9 -3 12 -12 7 -26 -4 -12 -10 -35 -14
-52 l-7 -30 -7 32 c-7 34 -36 57 -60 47 -23 -9 -37 -50 -47 -147 -5 -51 -12
-103 -14 -117 -2 -14 -7 -54 -11 -90 -6 -68 -24 -117 -40 -112 -6 1 -20 33
-33 70 -12 37 -41 102 -63 146 l-41 78 -1 122 0 121 -6 -104 -6 -104 -17 36
c-30 63 -100 62 -106 -1 -4 -37 53 -199 103 -293 19 -37 35 -69 35 -71 0 -3
-13 -3 -29 0 -42 6 -71 -26 -71 -78 0 -36 -3 -40 -24 -40 -35 0 -66 -30 -72
-71 -5 -28 -1 -41 19 -65 14 -16 33 -57 42 -89 9 -33 28 -95 41 -138 27 -89
25 -114 -18 -152 -34 -30 -68 -100 -69 -142 -1 -15 -2 -67 -3 -115 0 -47 -4
-90 -9 -94 -10 -11 -8 -46 4 -64 7 -11 8 -5 3 21 -3 22 -2 39 5 43 7 4 11 -1
11 -14 0 -12 4 -18 10 -15 15 9 52 -15 46 -31 -3 -8 -1 -14 4 -14 6 0 10 7 10
15 0 19 11 19 36 0 10 -8 26 -14 34 -14 8 0 -2 9 -22 19 -20 11 -39 24 -43 29
-3 6 -12 8 -20 5 -18 -7 -47 38 -39 60 5 14 9 15 15 4 6 -9 9 -10 9 -1 0 7 -9
27 -20 45 -20 33 -28 66 -10 38 8 -12 10 -9 6 10 -16 84 -15 96 9 149 14 30
28 51 32 47 4 -3 1 -12 -5 -18 -7 -7 -12 -43 -12 -89 0 -61 4 -79 18 -90 14
-11 15 -11 5 1 -18 20 -17 144 2 179 8 16 12 31 9 33 -2 3 2 11 10 17 23 20
32 -29 12 -67 -32 -62 -13 -162 40 -213 33 -32 40 -34 115 -38 122 -5 155 11
199 100 37 73 51 112 27 70 -14 -24 -15 -24 -27 34 -9 45 -9 67 0 98 8 29 14
36 20 27 5 -8 6 -18 4 -22 -3 -4 6 -23 20 -41 32 -42 54 -162 38 -212 -5 -19
-6 -37 -2 -40 16 -10 1 -88 -22 -112 -12 -12 -16 -23 -10 -23 25 0 52 63 52
123 0 49 5 64 29 95 38 48 67 122 74 192 4 34 3 45 -2 30 -7 -23 -8 -23 -13
-5 -2 11 -3 -2 -1 -30 4 -39 2 -47 -7 -35 -9 12 -10 11 -5 -7 6 -24 -24 -105
-44 -117 -16 -10 -14 -4 13 45 21 37 24 50 16 82 -12 53 -24 61 -15 11 7 -45
-14 -114 -36 -114 -6 0 -9 7 -5 15 3 8 2 15 -3 15 -5 0 -11 17 -15 38 -3 20
-19 66 -36 100 -27 58 -29 66 -15 85 8 12 15 30 15 40 0 31 22 6 56 -63 16
-33 32 -60 36 -60 11 0 -12 47 -50 107 -19 28 -32 58 -29 65 6 19 76 -57 97
-107 l18 -40 -3 48 c-2 47 -2 48 19 32 11 -8 30 -19 41 -24 44 -20 104 -102
126 -171 4 -14 5 13 2 60 -3 47 -7 86 -8 88 -2 2 -10 -5 -19 -14 -16 -16 -20
-15 -54 19 -20 19 -64 48 -97 65 -77 38 -110 65 -101 81 6 9 11 9 24 -1 14
-11 14 -9 0 8 -21 24 -23 35 -6 31 6 -1 14 6 16 17 3 13 0 16 -9 11 -7 -5 -10
-4 -6 2 4 6 3 40 -2 74 -7 52 -5 71 9 104 22 50 49 86 50 66 0 -8 -6 -22 -13
-30 -31 -37 -51 -176 -24 -166 7 3 20 -10 31 -29 10 -19 30 -45 44 -58 l24
-23 -7 25 c-4 14 -23 45 -43 69 -28 34 -36 53 -36 87 -1 24 3 44 9 43 5 0 12
8 16 18 6 17 7 17 14 -2 3 -11 11 -27 16 -35 20 -32 40 -82 36 -93 -2 -7 -16
7 -32 31 -15 23 -30 40 -33 38 -2 -3 5 -17 17 -32 11 -15 21 -35 21 -44 0 -10
6 -20 14 -23 7 -3 28 -34 45 -69 50 -99 73 -134 95 -144 12 -5 20 -16 18 -23
-1 -7 1 -10 6 -7 9 6 7 -188 -3 -233 -4 -20 0 -45 14 -76 11 -25 15 -45 10
-45 -22 0 -49 85 -49 155 -1 50 -4 64 -10 48 -5 -12 -5 -48 0 -83 7 -46 5 -69
-6 -95 -13 -31 -13 -35 1 -35 8 0 14 3 14 8 -3 20 2 32 12 27 6 -4 8 -12 6
-19 -3 -8 5 -11 22 -10 44 3 46 3 60 26 l14 23 -22 -20 c-19 -16 -24 -17 -31
-5 -13 20 -12 33 0 25 6 -3 7 1 4 9 -4 10 -1 16 7 16 8 0 4 9 -9 23 -12 13
-22 35 -22 50 0 23 4 27 28 27 23 1 25 2 11 13 -12 9 -17 35 -21 105 -4 80 -7
94 -26 107 -11 9 -31 30 -44 48 l-22 32 39 -29 c22 -16 53 -40 68 -53 16 -13
39 -23 53 -23 13 0 23 -5 21 -12 -3 -17 61 -34 75 -20 9 9 2 12 -28 13 l-39 1
45 9 c50 10 83 31 114 72 16 22 20 43 20 95 0 106 -6 124 -44 151 l-35 24 30
-8 30 -7 -24 26 c-19 20 -22 29 -13 38 7 7 12 8 12 2 0 -6 7 -19 16 -30 15
-18 15 -18 5 3 -18 36 -13 48 10 27 27 -24 48 -65 42 -81 -3 -7 0 -13 5 -13
14 0 32 -57 31 -99 0 -30 -2 -33 -10 -16 -8 16 -8 15 -4 -8 7 -35 -5 -59 -16
-31 -5 12 -8 -1 -8 -38 -1 -49 -5 -61 -28 -82 -28 -26 -39 -61 -23 -71 17 -10
11 -33 -10 -40 -19 -6 -18 -8 8 -30 27 -24 27 -24 4 -25 -13 0 -21 -4 -17 -9
3 -5 -20 -15 -50 -22 -43 -10 -64 -10 -96 0 -56 17 -61 6 -8 -19 50 -22 86
-24 144 -6 l40 12 11 -121 c6 -66 11 -121 10 -121 -1 -1 -15 -5 -32 -8 -26 -6
-32 -3 -43 20 -8 19 -9 30 0 40 16 19 4 44 -46 99 l-45 48 1 -34 c0 -28 2 -31
9 -14 7 17 9 16 9 -10 1 -48 -17 -100 -45 -128 l-25 -26 40 -27 c46 -30 64
-27 30 5 -13 12 -17 21 -10 21 8 0 9 5 3 16 -10 18 24 97 39 89 4 -3 8 -21 7
-39 -1 -40 24 -76 74 -105 55 -31 61 -28 54 27 -12 99 -27 329 -24 379 2 28 0
49 -3 47 -4 -2 -12 3 -18 10 -10 11 -5 18 26 36 54 31 122 129 122 175 0 11
-15 -11 -34 -49 -18 -38 -40 -76 -49 -84 -15 -15 -16 -14 -16 6 0 12 12 45 26
72 24 45 26 57 19 118 -6 66 -33 136 -75 200 -29 43 -7 43 39 0 19 -18 29 -24
21 -14 -14 18 -14 19 7 8 26 -14 36 -15 29 -3 -8 12 74 -7 100 -24 19 -12 64
-110 64 -140 0 -25 -23 -66 -30 -55 -4 6 -17 -13 -29 -42 -25 -57 -68 -131
-111 -188 -20 -27 -25 -41 -19 -60 4 -14 8 -20 9 -15 1 6 6 -3 10 -20 6 -25 8
-20 9 27 1 60 8 88 21 88 5 0 11 -12 13 -27 3 -18 5 -10 7 22 2 42 4 35 11
-38 9 -111 35 -197 66 -220 26 -21 31 -57 8 -57 -8 0 -15 5 -15 11 0 6 -11 24
-25 41 -14 16 -25 26 -25 23 0 -4 -7 -2 -15 5 -8 7 -15 8 -15 3 0 -6 11 -19
26 -29 37 -28 69 -82 73 -126 1 -5 5 -8 10 -8 6 0 8 17 5 38 l-4 37 18 -38
c21 -42 81 -109 92 -102 4 3 10 -9 14 -25 4 -22 11 -30 26 -30 20 0 20 1 6 22
-9 12 -16 31 -16 42 0 18 1 18 20 1 10 -9 18 -22 17 -27 -1 -6 4 -13 12 -16 8
-3 11 0 7 7 -10 16 5 14 49 -9 36 -18 58 -20 220 -19 139 0 185 4 203 15 26
17 30 59 5 72 -14 8 -13 12 10 27 29 19 36 60 17 96 -8 15 -7 23 5 35 8 8 15
31 15 50 0 41 -37 84 -72 84 -20 -1 -18 -3 10 -15 65 -29 67 -103 2 -129 -51
-20 -90 -8 -90 28 0 30 30 59 31 30 0 -11 3 -14 6 -6 6 16 30 16 36 0 2 -7 0
-22 -6 -33 -10 -19 -10 -19 -18 0 -7 19 -8 19 -8 -2 -1 -28 10 -29 33 -4 24
26 13 59 -20 63 l-25 3 20 21 c11 12 16 25 11 30 -4 5 -2 61 6 124 7 63 13
121 13 128 1 6 9 12 19 13 14 0 14 2 -3 9 -20 9 -20 9 0 9 16 1 17 3 5 11 -23
14 -1 28 50 33 l45 4 -48 1 c-43 2 -48 4 -46 25 6 66 -17 75 -183 78 -89 1
-108 4 -108 16 0 13 -3 13 -15 3 -12 -10 -15 -10 -15 3 0 8 4 17 10 19 11 4 2
48 -11 48 -5 0 -6 -6 -3 -14 3 -7 -4 -29 -16 -48 l-20 -35 159 -5 c100 -3 165
-9 174 -16 11 -9 12 -25 5 -74 -14 -99 -17 -110 -33 -104 -8 3 -17 2 -19 -3
-3 -4 -51 -9 -108 -10 -56 -1 -105 -5 -108 -8 -3 -3 53 -3 123 -2 l129 4 -6
-50 c-3 -27 -9 -84 -13 -125 l-8 -75 -6 50 -6 50 -1 -51 c-1 -30 -8 -56 -16
-63 -11 -9 -13 -4 -10 31 2 24 6 78 10 121 6 86 21 102 27 30 4 -44 4 -43 4
10 l0 57 -36 -1 c-20 -1 -28 -3 -18 -6 11 -3 16 -10 13 -20 -3 -8 -6 -42 -6
-74 0 -34 -4 -58 -9 -55 -5 4 -7 -4 -4 -16 4 -19 3 -20 -6 -8 -8 11 -10 -9 -9
-75 l2 -90 6 75 6 75 2 -89 c1 -49 -1 -86 -5 -83 -8 8 -33 -39 -33 -64 0 -10
5 -21 12 -25 8 -5 9 -2 4 11 -8 22 20 69 36 59 7 -4 8 -3 4 4 -12 19 10 13 29
-8 19 -21 14 -50 -9 -50 -8 0 -20 8 -25 18 -6 9 -10 13 -11 7 0 -22 18 -37 41
-33 29 4 41 54 15 64 -27 10 -18 23 25 36 37 11 43 10 55 -7 28 -38 18 -64
-33 -87 -48 -21 -89 -27 -195 -31 -32 -1 -58 -5 -58 -9 0 -5 -19 -7 -42 -7
-40 1 -41 2 -13 9 22 6 12 8 -40 8 -58 0 -66 -2 -45 -11 29 -12 242 -16 282
-5 25 8 26 7 15 -17 -13 -27 -26 -29 -187 -25 -54 1 -139 15 -140 23 -3 17
-15 121 -40 352 -17 154 -33 295 -36 313 l-6 32 115 0 c70 0 118 4 122 10 4 7
11 8 18 1 7 -5 62 -9 122 -10 82 0 105 2 92 10 -10 6 -30 8 -44 4 -14 -3 -31
-1 -39 6 -14 11 -188 9 -322 -5 -44 -5 -62 -4 -57 4 3 5 28 10 56 10 39 0 49
3 49 17 0 13 -3 14 -12 5 -16 -16 -28 -15 -28 1 0 8 -7 14 -15 14 -8 0 -15 -6
-15 -14 0 -16 -22 -17 -37 -2 -8 8 -11 7 -10 -2 0 -8 -1 -30 -1 -51 l-2 -36
-40 19 c-21 10 -46 19 -55 19 -10 0 -15 8 -13 23 6 58 -28 128 -86 175 -10 8
-17 30 -17 55 -5 153 -5 156 14 161 11 3 16 9 12 16 -5 8 -13 6 -26 -6 -16
-15 -19 -32 -19 -116 0 -80 -3 -98 -15 -98 -8 0 -15 5 -15 10 0 6 -6 10 -14
10 -8 0 -17 6 -19 13 -4 8 -6 6 -6 -4 -1 -22 -50 -19 -64 3 -8 12 -7 21 2 32
18 22 58 21 64 -1 2 -10 4 -1 4 20 0 21 -4 32 -8 26 -4 -7 -18 -13 -31 -15
-12 -1 -23 -3 -23 -4 0 -1 -11 -3 -24 -6 -22 -4 -23 -2 -16 28 4 18 8 43 9 56
1 12 4 22 9 22 4 0 7 11 7 25 0 14 5 25 10 25 6 0 10 -6 10 -12 0 -9 3 -8 10
2 21 34 19 -2 -5 -65 -14 -37 -25 -69 -25 -71 0 -3 18 8 40 22 22 15 40 33 40
41 0 15 -13 11 -43 -16 -18 -15 -18 -14 -6 12 7 15 16 27 21 27 4 0 8 14 8 30
0 24 4 30 22 30 17 0 19 -3 10 -12 -15 -15 -16 -45 -1 -54 9 -5 10 1 5 22 -4
16 -4 26 0 22 7 -8 44 34 44 50 0 5 21 15 48 22 26 7 52 17 57 23 7 7 5 7 -4
2 -11 -6 -13 2 -9 49 3 31 1 56 -4 56 -7 0 -13 -56 -9 -89 2 -7 -2 -10 -8 -6
-6 3 -11 1 -11 -5 0 -6 -4 -8 -10 -5 -5 3 -10 24 -10 45 0 28 5 40 18 43 11 3
8 5 -9 6 -25 1 -25 0 -21 -58 4 -56 3 -59 -22 -65 -14 -3 -26 -12 -26 -19 0
-8 -16 -13 -47 -13 -40 -1 -52 4 -82 32 -20 18 -39 30 -42 26 -4 -4 -3 -29 1
-57 13 -76 11 -237 -3 -261 -12 -21 -89 -113 -139 -166 -23 -25 -33 -28 -87
-28 l-61 0 -35 55 c-34 53 -57 76 -35 35 9 -17 8 -19 -7 -14 -10 3 5 -17 34
-45 49 -48 54 -51 103 -51 63 0 101 20 138 74 26 38 27 38 31 15 1 -13 6 -26
11 -29 18 -12 50 -88 50 -120 0 -69 -65 -130 -137 -130 -58 0 -125 32 -182 86
-30 30 -52 56 -50 59 3 3 29 -3 58 -13 29 -10 49 -21 45 -25 -4 -4 0 -7 8 -7
9 0 31 -2 49 -6 l34 -5 -28 16 c-16 9 -63 26 -105 38 -75 22 -76 23 -86 61 -6
27 -5 50 2 68 10 27 8 30 -28 54 -41 28 -49 43 -90 194 -26 96 -26 104 1 90
11 -7 23 -9 26 -6 4 3 12 1 20 -5 13 -11 68 -7 110 7 14 6 15 4 6 -6 -6 -7
-26 -16 -45 -20 l-33 -8 31 -1 c69 -2 82 50 16 69 -40 11 -79 4 -103 -17 -15
-12 -19 -11 -38 13 -13 16 -21 39 -19 53 4 32 64 74 96 68 12 -2 20 -2 17 1
-2 3 0 11 6 19 9 10 8 13 -5 13 -10 0 -14 5 -11 10 4 6 10 8 15 5 5 -3 11 -1
15 5 3 5 14 10 23 10 15 0 15 -1 -1 -12 -18 -15 -12 -27 33 -63 l25 -20 -20
24 c-20 24 -20 24 0 17 33 -13 87 -25 99 -21 6 2 25 6 41 10 27 7 28 8 10 15
-11 4 -32 6 -46 3 -15 -3 -37 0 -49 7 -17 9 -24 9 -30 1 -5 -9 -14 -9 -36 0
l-29 12 50 13 c28 6 82 12 120 13 70 1 70 1 46 -18 -15 -11 -20 -21 -13 -25 6
-3 20 3 31 15 l20 21 25 -19 25 -20 -46 -7 c-45 -6 -73 -20 -73 -37 0 -4 13
-3 29 2 16 6 51 9 77 7 45 -3 51 -6 66 -38 20 -39 24 -29 7 16 -5 16 -28 44
-51 62 -30 24 -35 32 -22 32 16 1 14 3 -6 14 -14 8 -28 12 -32 9 -5 -2 -18 -1
-31 3 -19 7 -17 9 16 14 83 15 243 -32 230 -68 -10 -30 -34 -51 -51 -46 -13 4
-12 2 2 -8 11 -7 29 -23 41 -35 l22 -23 -5 26 c-3 20 3 32 27 54 17 16 31 37
31 47 0 15 2 16 10 3 8 -13 10 -12 10 3 0 9 -6 17 -12 17 -24 0 -88 68 -88 93
0 39 -77 186 -102 196 -13 5 -46 25 -75 45 -44 30 -62 36 -120 40 -37 3 -97
-1 -133 -7z m187 -12 c18 -4 51 -25 74 -46 44 -41 56 -48 43 -26 -5 7 2 6 16
-4 14 -9 29 -30 35 -47 5 -18 13 -32 17 -32 9 0 23 -31 44 -98 13 -41 12 -42
-7 -32 -11 6 -17 15 -14 20 3 5 2 21 -1 37 -7 25 -8 25 -15 8 -6 -13 -7 -7 -4
20 2 22 2 32 -1 23 -3 -10 -10 -18 -15 -18 -5 0 -8 -3 -8 -7 7 -44 -23 -43
-51 2 -13 22 -19 42 -15 55 7 21 39 27 50 9 11 -17 -3 -23 -20 -9 -14 12 -15
10 -9 -16 3 -16 11 -33 17 -39 7 -7 8 -4 3 9 -4 13 -2 17 8 13 11 -5 14 2 11
30 -4 44 -23 58 -48 35 -12 -11 -22 -13 -31 -7 -74 54 -105 82 -101 92 2 6 -3
17 -11 23 -11 10 -14 10 -14 0 0 -7 -7 -10 -17 -6 -21 8 63 -70 100 -92 15 -9
27 -20 27 -24 0 -4 7 -8 15 -8 8 0 12 -6 9 -14 -7 -18 31 -92 51 -99 8 -4 26
-2 40 3 27 10 28 10 19 -14 -3 -9 -14 -16 -23 -17 -9 0 4 -6 28 -14 42 -13
111 -68 111 -89 0 -13 -61 -76 -73 -76 -5 0 2 9 16 20 62 49 40 89 -66 122
-61 18 -86 20 -191 15 -123 -6 -281 -38 -344 -71 -17 -9 -48 -33 -68 -54 -28
-28 -34 -31 -24 -12 7 14 11 27 9 30 -9 11 96 70 168 94 101 33 190 48 285 48
43 0 75 4 73 8 -3 5 -14 6 -25 3 -17 -4 -20 0 -20 23 0 36 -31 87 -65 110 -20
13 -39 15 -84 11 -94 -8 -126 -40 -140 -142 -7 -45 -8 -47 -15 -22 -17 58 24
145 78 167 16 7 17 9 5 9 -25 1 -88 -69 -95 -106 -3 -18 -3 -48 0 -66 6 -31 4
-34 -28 -44 -32 -10 -35 -9 -39 11 -3 17 -5 15 -6 -6 0 -16 -7 -28 -14 -28 -7
0 -30 -14 -51 -32 l-39 -32 6 48 c4 27 7 62 7 78 0 20 4 27 12 22 7 -5 9 -2 5
8 -8 23 14 90 29 84 6 -2 20 13 30 35 24 54 98 115 146 121 20 2 34 0 32 -4
-3 -4 -1 -8 5 -8 5 0 13 5 16 10 11 17 25 11 25 -11 0 -11 -4 -17 -10 -14 -5
3 -18 1 -27 -4 -15 -9 -14 -10 10 -11 19 0 31 -7 38 -22 7 -18 8 -14 4 20 -3
24 -3 48 1 53 6 10 47 8 111 -6z m13 -205 c-13 -8 -12 -10 3 -10 25 0 21 -19
-5 -24 -49 -9 -223 -33 -226 -31 -1 1 1 16 4 34 5 22 14 33 32 38 l25 6 -24
19 -24 20 60 -7 c33 -3 74 -8 92 -10 26 -3 31 0 26 13 -4 11 5 6 23 -11 24
-23 27 -29 14 -37z m-479 -26 c10 -12 13 -44 11 -113 -1 -53 1 -138 4 -189 5
-84 9 -98 39 -142 l34 -50 -46 0 -45 0 7 79 c7 82 0 135 -15 111 -11 -18 -49
-23 -66 -9 -11 9 -14 9 -14 0 0 -6 11 -17 25 -23 20 -9 28 -8 42 5 17 15 18 8
18 -124 0 -76 0 -139 0 -139 0 0 -30 6 -66 14 -50 10 -77 11 -106 3 -22 -6
-48 -7 -58 -3 -17 6 -17 7 1 22 10 9 14 13 7 9 -7 -3 -17 3 -22 14 -15 27 -14
29 10 33 12 2 28 14 37 28 l14 25 -20 -25 c-16 -19 -23 -22 -34 -12 -8 6 -18
8 -22 4 -4 -4 -5 11 -2 33 4 30 3 34 -3 15 -7 -18 -9 -20 -10 -7 -1 10 -8 31
-16 47 -14 27 -14 29 2 23 11 -4 7 3 -10 18 -18 16 -42 63 -72 143 -25 65 -45
127 -45 136 0 25 25 43 49 35 23 -7 126 -210 167 -329 28 -82 40 -99 63 -87 9
5 23 6 31 4 12 -4 12 -3 2 5 -11 7 -11 18 -3 48 10 39 26 162 41 304 4 41 11
83 15 93 9 21 38 22 56 1z m78 -310 c0 -34 -3 -53 -9 -49 -15 10 -11 -16 10
-63 10 -23 26 -45 34 -48 20 -8 29 -34 11 -34 -8 0 -32 25 -54 57 -44 60 -55
116 -26 127 18 7 20 46 3 47 -7 0 -4 4 7 9 11 5 21 9 21 9 1 1 2 -24 3 -55z
m41 -135 c0 -5 -4 -9 -8 -9 -9 0 -32 44 -32 58 1 10 40 -38 40 -49z m-417 -16
c8 -10 22 -45 31 -79 9 -34 23 -77 31 -97 20 -49 19 -55 -10 -49 -16 3 -33 -2
-44 -12 -18 -17 -19 -16 -26 16 -4 18 -18 52 -31 75 -30 52 -34 136 -6 152 25
15 37 13 55 -6z m392 -43 c-3 -5 3 -10 14 -10 25 0 27 -13 4 -31 -9 -8 -24
-32 -34 -54 -14 -32 -19 -36 -25 -22 -4 12 4 31 25 58 18 21 27 39 21 39 -5 0
-10 -4 -10 -9 0 -8 -64 -51 -76 -51 -2 0 -4 6 -4 13 0 17 29 43 55 50 20 5 20
5 0 6 -12 0 -26 -4 -32 -10 -6 -6 -16 -8 -22 -5 -22 14 -10 23 31 24 23 1 44
4 46 7 9 9 13 5 7 -5z m-473 -84 c17 -23 62 -127 56 -130 -46 -19 -60 -54 -31
-76 15 -12 16 -12 6 0 -18 20 -16 47 4 54 18 7 43 -16 43 -39 0 -15 -21 -35
-36 -35 -20 0 -104 118 -104 145 0 14 -4 25 -9 25 -5 0 -7 -10 -4 -22 4 -23 4
-23 -11 -3 -9 11 -14 26 -11 33 3 8 5 21 5 29 0 9 3 13 6 10 4 -3 18 3 32 13
31 25 33 25 54 -4z m228 -6 c-25 -25 -26 -71 -1 -101 14 -18 17 -28 9 -42 -5
-10 -7 -21 -5 -24 3 -2 8 5 12 16 7 22 14 25 39 15 11 -4 13 -11 5 -31 -5 -13
-8 -43 -8 -66 1 -41 2 -41 9 11 9 58 20 81 20 40 0 -14 9 -36 20 -49 l21 -24
-16 32 c-16 35 -20 57 -7 49 5 -3 26 6 47 21 30 20 39 23 46 12 12 -20 11 -2
-1 22 -9 16 -15 17 -31 9 -11 -6 -17 -15 -14 -20 3 -4 -9 -13 -25 -19 -17 -5
-29 -7 -26 -2 3 4 -15 17 -40 29 -51 25 -59 38 -50 86 8 44 41 51 121 24 90
-30 95 -37 95 -132 -1 -53 -5 -87 -15 -99 -7 -11 -17 -38 -20 -60 -7 -42 -63
-137 -100 -169 -11 -10 -15 -17 -8 -18 6 0 23 14 37 31 30 35 31 31 11 -28 -8
-23 -16 -77 -18 -120 -4 -88 -16 -117 -55 -137 -78 -40 -178 -27 -229 28 -28
30 -33 43 -32 83 1 47 1 48 9 13 10 -41 50 -76 103 -91 55 -15 145 4 177 37
l25 25 -49 -25 c-33 -18 -65 -26 -98 -26 -54 0 -121 29 -138 59 -11 22 -13 83
-3 119 l6 24 24 -29 c29 -33 20 -12 -13 34 -13 17 -26 51 -28 75 -3 23 -17 74
-31 113 -15 38 -24 76 -22 85 2 9 -2 21 -10 28 -7 7 -13 20 -13 30 0 12 6 8
19 -12 11 -17 18 -33 15 -37 -2 -4 3 -10 12 -13 25 -10 72 -7 80 5 3 6 16 8
29 5 31 -8 64 20 80 67 10 31 10 37 -1 37 -7 0 -17 15 -22 33 -6 17 -13 40
-17 50 -5 12 -2 17 11 17 11 1 30 7 44 15 35 20 43 18 20 -5z m-80 -125 c0
-25 -32 -51 -50 -40 -14 9 -12 52 3 58 31 13 47 7 47 -18z m18 -48 c-12 -23
-33 -31 -55 -22 -15 6 -13 10 15 23 25 12 32 22 33 46 l1 31 7 -30 c4 -16 3
-38 -1 -48z m1224 -8 l40 -21 -34 -24 c-28 -20 -39 -39 -62 -110 -15 -47 -26
-88 -23 -90 2 -3 8 8 11 23 16 65 68 160 97 177 l29 17 0 -33 c0 -22 -12 -50
-34 -81 -18 -26 -44 -75 -57 -110 -13 -34 -25 -55 -27 -46 -2 9 8 45 22 80 34
81 27 87 -9 8 -23 -52 -27 -71 -22 -125 2 -36 0 -67 -5 -70 -5 -3 -6 -19 -3
-36 l7 -30 -25 23 c-40 34 -59 94 -64 199 -4 81 -2 101 16 133 11 21 17 45 15
52 -3 7 2 26 11 42 15 26 15 26 9 3 -4 -14 -9 -32 -11 -40 -3 -10 1 -8 11 4 9
11 16 28 16 37 0 17 24 38 43 39 4 0 26 -9 49 -21z m56 -186 c-9 -12 -9 -15 0
-9 31 19 7 -27 -40 -75 -29 -29 -44 -45 -32 -36 11 9 23 15 26 12 2 -3 15 6
28 20 29 31 40 32 40 2 0 -16 -14 -34 -45 -56 -25 -18 -45 -35 -45 -39 0 -3 5
-1 12 6 17 17 33 15 18 -3 -7 -8 -10 -15 -6 -15 3 0 -3 -9 -14 -20 -11 -11
-20 -25 -20 -31 0 -5 -5 -7 -12 -3 -8 5 -8 3 -2 -7 5 -8 9 -42 9 -76 0 -48 5
-68 23 -92 28 -38 29 -61 2 -36 -29 26 -71 101 -65 117 3 7 7 31 9 53 16 145
22 175 42 221 29 66 78 125 82 100 2 -9 -2 -24 -10 -33z m32 -164 c0 -33 -3
-40 -16 -35 -9 3 -25 6 -36 6 -17 0 -18 3 -8 15 7 8 9 15 4 15 -12 1 35 40 47
40 5 0 9 -18 9 -41z m-3 -57 c16 -10 10 -97 -8 -118 -8 -10 -24 -14 -46 -12
-18 2 -33 0 -33 -4 0 -13 47 -20 67 -10 31 17 50 -7 54 -66 4 -48 3 -51 -16
-46 -26 8 -81 60 -107 103 -18 29 -20 38 -10 65 7 18 12 44 12 58 0 13 3 28 7
31 9 9 65 9 80 -1z m500 -249 c14 -36 -75 -71 -105 -41 -19 19 -14 28 21 43
43 19 76 18 84 -2z"/>
<path d="M1343 1685 c-15 -13 -39 -33 -53 -44 -20 -17 -21 -20 -5 -14 11 3 29
12 40 19 11 6 32 14 48 18 15 4 27 13 27 20 0 25 -29 25 -57 1z"/>
<path d="M1521 1641 c73 -15 124 -63 142 -136 4 -17 5 -17 6 -2 4 62 -87 148
-153 146 -30 -1 -30 -1 5 -8z"/>
<path d="M1230 1549 c-12 -28 -15 -29 -20 -13 -5 14 -10 5 -19 -34 -17 -82
-14 -82 24 -3 20 41 34 76 32 78 -3 2 -10 -11 -17 -28z"/>
<path d="M1028 891 c8 -4 12 -19 10 -32 -2 -19 -9 -24 -31 -24 -25 1 -27 -1
-12 -11 22 -17 44 -7 51 22 7 29 -1 54 -18 54 -10 0 -10 -2 0 -9z"/>
<path d="M1080 713 c0 -14 19 -29 53 -42 17 -7 27 -7 27 -1 0 6 -8 10 -17 10
-9 0 -27 10 -40 22 -13 12 -23 17 -23 11z"/>
<path d="M944 656 c-18 -58 -12 -125 13 -133 8 -3 7 7 -2 35 -12 33 -12 47 0
93 19 71 11 75 -11 5z"/>
<path d="M924 498 c2 -29 -1 -48 -7 -48 -5 0 12 -11 38 -25 57 -31 71 -27 18
5 -22 13 -33 25 -25 27 10 4 10 8 2 18 -6 8 -16 26 -21 42 -7 23 -8 20 -5 -19z"/>
<path d="M800 472 c12 -19 29 -36 36 -39 19 -7 64 5 64 17 0 6 -10 5 -25 -2
-23 -10 -29 -8 -62 23 l-36 34 23 -33z"/>
<path d="M940 376 c0 -13 -3 -33 -6 -43 -5 -13 -4 -15 4 -8 17 15 27 75 13 75
-6 0 -11 -11 -11 -24z"/>
<path d="M2010 435 c0 -11 12 -42 25 -70 26 -52 25 -44 -6 40 -10 28 -18 41
-19 30z"/>
<path d="M2151 249 c-13 -11 -21 -22 -17 -26 3 -4 13 3 22 15 16 24 44 30 44
9 0 -7 -12 -20 -27 -29 -16 -10 -23 -18 -17 -18 23 0 58 36 51 53 -8 22 -27
21 -56 -4z"/>
<path d="M2448 1710 c-52 -35 -61 -50 -42 -67 13 -13 33 1 20 14 -3 3 14 23
37 44 51 46 46 49 -15 9z"/>
<path d="M1013 1681 c1 -16 5 -27 9 -25 4 2 10 -17 14 -43 6 -41 8 -44 15 -25
6 16 4 33 -6 53 l-16 29 55 0 c30 0 58 5 61 10 11 19 35 10 36 -12 0 -13 3
-17 6 -10 4 10 8 10 21 0 13 -11 13 -8 -2 20 l-17 32 -89 0 -89 0 2 -29z"/>
<path d="M403 1693 c20 -2 54 -2 75 0 20 2 3 4 -38 4 -41 0 -58 -2 -37 -4z"/>
<path d="M910 1690 c-11 -7 -6 -8 16 -4 27 5 34 2 53 -28 24 -35 24 -31 2 15
-15 28 -43 35 -71 17z"/>
<path d="M590 1660 c6 -11 15 -20 20 -20 6 0 10 -10 10 -22 1 -21 1 -22 11 -5
9 15 6 24 -12 43 -27 29 -44 31 -29 4z"/>
<path d="M2038 1585 c-2 -54 1 -94 6 -92 12 4 18 33 18 85 0 23 4 42 9 42 5 0
9 7 9 16 0 8 -4 12 -10 9 -5 -3 -10 1 -10 9 0 8 -4 17 -9 21 -6 3 -11 -34 -13
-90z"/>
<path d="M540 1654 c0 -13 -15 -15 -95 -13 -52 1 -98 -1 -102 -4 -3 -4 42 -7
100 -7 100 0 107 1 107 20 0 11 -2 20 -5 20 -3 0 -5 -7 -5 -16z"/>
<path d="M560 1576 c0 -105 8 -130 11 -33 2 50 4 55 15 38 20 -28 49 -32 64
-8 12 20 13 20 26 2 8 -10 14 -28 14 -39 0 -17 -2 -18 -10 -6 -6 9 -10 10 -10
3 0 -22 17 -23 35 -3 14 16 20 17 27 8 6 -10 8 -10 8 0 0 8 -9 16 -19 19 -13
3 -18 10 -14 21 4 10 2 13 -5 8 -6 -4 -19 5 -29 21 l-18 27 -5 -29 c-4 -23
-10 -29 -25 -27 -27 5 -34 13 -50 58 -14 38 -14 36 -15 -60z"/>
<path d="M1134 1638 c-4 -6 -3 -8 4 -4 6 3 13 2 17 -4 3 -5 1 -10 -4 -10 -6 0
-11 -4 -11 -10 0 -5 7 -10 15 -10 16 0 19 9 9 34 -7 19 -20 21 -30 4z"/>
<path d="M864 1505 c0 -77 2 -107 3 -67 2 40 2 103 0 140 -2 37 -3 4 -3 -73z"/>
<path d="M1004 1607 c-2 -7 -3 -71 -2 -143 l3 -129 5 143 c3 78 4 142 2 142
-1 0 -5 -6 -8 -13z"/>
<path d="M2141 1596 c-8 -9 -8 -25 -1 -52 l9 -39 -3 35 c-2 19 1 43 6 53 10
20 5 22 -11 3z"/>
<path d="M2410 1600 c-12 -8 -11 -10 6 -10 12 0 27 -7 34 -15 14 -17 30 -20
30 -5 0 6 -5 10 -12 10 -6 0 -19 7 -27 14 -11 10 -21 12 -31 6z"/>
<path d="M195 1551 c-27 -6 -30 -10 -30 -46 0 -38 -1 -39 -45 -50 -39 -9 -45
-15 -51 -43 -8 -38 4 -41 27 -7 9 14 30 29 48 33 21 6 32 15 34 30 2 12 8 22
13 22 5 0 8 3 8 8 -3 18 2 32 11 32 6 0 10 -9 10 -21 0 -11 5 -17 10 -14 6 4
8 11 5 16 -4 5 -1 9 5 9 6 0 8 5 5 10 -3 6 -1 10 4 10 6 0 11 5 11 10 0 11
-18 11 -65 1z"/>
<path d="M408 1553 c23 -2 59 -2 80 0 20 2 1 4 -43 4 -44 0 -61 -2 -37 -4z"/>
<path d="M2876 1553 c-4 -4 14 -12 41 -18 26 -6 48 -15 48 -22 0 -6 4 -15 8
-20 5 -4 7 8 5 27 -3 34 -4 35 -48 38 -25 2 -49 -1 -54 -5z"/>
<path d="M2152 1495 c-7 -14 -12 -40 -11 -58 1 -26 4 -22 15 23 14 61 13 73
-4 35z"/>
<path d="M2219 1444 c0 -27 -1 -63 -2 -81 -1 -23 3 -33 15 -36 9 -3 17 -13 16
-23 0 -21 56 -187 73 -213 12 -19 13 -24 -43 164 -22 72 -41 152 -43 178 -4
65 -15 72 -16 11z"/>
<path d="M398 1423 c28 -2 76 -2 105 0 28 2 5 3 -53 3 -58 0 -81 -1 -52 -3z"/>
<path d="M564 1335 c0 -55 1 -76 3 -47 2 29 2 74 0 100 -2 26 -3 2 -3 -53z"/>
<path d="M1954 1406 c-3 -8 -4 -25 -2 -38 2 -19 5 -17 15 15 10 35 -1 55 -13
23z"/>
<path d="M2142 1358 c1 -21 3 -38 3 -38 1 0 14 14 29 31 22 25 24 30 9 27 -10
-2 -17 -10 -15 -16 4 -20 -8 -13 -18 11 -8 19 -9 16 -8 -15z"/>
<path d="M107 1372 c-39 -2 -60 -8 -64 -18 -3 -7 -11 -14 -19 -14 -8 0 -14 -9
-14 -20 0 -25 16 -26 29 -2 10 16 10 15 11 -3 0 -18 2 -17 13 5 13 26 67 42
67 20 0 -8 9 -10 24 -6 21 5 25 2 29 -21 4 -26 4 -26 6 5 0 17 -3 32 -8 32 -5
0 -11 6 -13 13 -2 8 -21 11 -61 9z"/>
<path d="M662 1358 c-7 -7 -12 -20 -12 -30 0 -11 -11 -23 -25 -28 -26 -10 -33
-42 -15 -70 8 -12 10 -9 10 12 0 15 6 33 14 40 17 17 49 78 44 84 -3 2 -10 -2
-16 -8z"/>
<path d="M970 1239 c0 -49 4 -88 8 -85 4 2 7 27 6 55 0 31 3 51 10 51 6 0 5 4
-3 9 -8 5 -12 19 -9 35 3 14 1 26 -3 26 -5 0 -9 -41 -9 -91z"/>
<path d="M1353 1306 c0 -8 5 -12 10 -9 6 3 7 1 3 -5 -4 -7 -19 -12 -33 -12
-34 0 -93 -29 -93 -46 0 -12 4 -12 23 1 13 8 49 17 81 19 32 2 59 6 62 8 2 3
-9 17 -24 32 -20 18 -29 22 -29 12z"/>
<path d="M2123 1296 c-18 -8 -23 -19 -23 -48 0 -29 -4 -38 -17 -39 -15 0 -15
-2 -3 -7 8 -4 15 -17 16 -29 1 -25 -32 -37 -78 -28 -15 3 -30 1 -33 -5 -4 -6
-3 -10 2 -9 28 5 83 -3 83 -12 0 -7 -16 -8 -45 -3 -30 4 -45 3 -45 -5 0 -6 3
-10 8 -10 30 5 92 -3 87 -11 -3 -6 1 -7 9 -4 12 5 16 0 16 -19 0 -14 5 -29 11
-33 8 -4 9 3 4 25 -5 24 -3 31 9 31 13 0 16 -12 16 -55 l0 -54 23 22 c25 24
27 38 2 17 -18 -15 -20 1 -3 18 9 9 9 12 0 12 -18 0 -14 41 6 56 16 13 16 14
0 8 -23 -8 -23 3 0 24 10 10 12 13 5 8 -8 -5 -17 -6 -21 -2 -4 4 0 11 8 16 8
5 24 16 35 25 19 16 18 16 -7 1 -35 -21 -44 -20 -27 1 10 11 10 14 2 9 -7 -4
-13 -3 -13 2 0 13 29 24 42 15 7 -4 8 -1 3 7 -6 9 -4 12 7 8 8 -4 15 -1 15 6
0 10 -10 9 -39 -3 -31 -13 -38 -21 -38 -43 0 -21 -5 -28 -20 -28 -11 0 -20 5
-20 10 0 6 3 10 8 10 4 0 6 21 4 46 -4 39 -1 46 17 51 12 3 21 12 21 19 0 8
-1 13 -2 13 -2 -1 -13 -6 -25 -13z m17 -171 c0 -16 -6 -25 -15 -25 -9 0 -15 9
-15 25 0 16 6 25 15 25 9 0 15 -9 15 -25z"/>
<path d="M458 1283 c17 -2 47 -2 65 0 17 2 3 4 -33 4 -36 0 -50 -2 -32 -4z"/>
<path d="M2838 1274 c-5 -4 -8 -23 -8 -43 1 -30 2 -33 11 -18 11 19 8 73 -3
61z"/>
<path d="M258 1256 c-10 -7 -18 -23 -18 -35 0 -32 17 -25 24 10 3 17 10 28 16
24 5 -3 10 -1 10 4 0 14 -11 13 -32 -3z"/>
<path d="M1490 1242 c-39 -6 -49 -22 -13 -22 18 0 35 5 38 11 9 14 5 16 -25
11z"/>
<path d="M1537 1233 c-4 -3 -7 -17 -7 -30 0 -33 24 -24 28 10 3 26 -7 35 -21
20z"/>
<path d="M1660 1232 c-39 -5 -78 -22 -84 -38 -3 -8 1 -14 9 -14 8 0 15 5 15
12 0 7 6 5 18 -4 18 -16 59 -15 76 2 6 6 19 10 31 11 18 0 17 1 -5 10 -13 6
-27 13 -30 17 -3 4 -16 6 -30 4z"/>
<path d="M2643 1185 c0 -33 2 -45 4 -27 2 18 2 45 0 60 -2 15 -4 0 -4 -33z"/>
<path d="M320 1176 c0 -26 4 -45 9 -42 10 6 8 72 -2 82 -4 4 -7 -14 -7 -40z"/>
<path d="M1420 1212 c0 -5 9 -18 21 -31 12 -12 25 -34 30 -49 8 -24 8 -23 4 7
-6 38 -30 81 -45 81 -6 0 -10 -4 -10 -8z"/>
<path d="M2022 1199 c-10 -16 -9 -19 3 -19 8 0 15 -4 15 -10 0 -5 5 -10 10
-10 14 0 12 22 -3 42 -12 15 -14 15 -25 -3z"/>
<path d="M2232 1128 c3 -57 5 -63 23 -60 27 5 28 7 20 31 -4 12 -12 18 -21 14
-7 -3 -14 0 -14 6 0 6 4 11 9 11 11 0 2 48 -11 56 -5 3 -8 -20 -6 -58z"/>
<path d="M2371 1152 c6 -18 8 -39 5 -48 -3 -8 -2 -13 3 -10 13 8 75 -168 67
-189 -2 -7 0 -18 5 -26 6 -10 9 -7 9 11 0 14 11 42 25 63 15 22 23 43 18 50
-18 30 -70 80 -90 88 -27 10 -29 31 -5 55 16 17 16 18 -2 11 -12 -5 -23 -1
-32 10 -12 16 -12 14 -3 -15z m79 -108 c0 -23 -19 -25 -30 -4 -14 26 -4 45 16
29 8 -6 14 -17 14 -25z m15 -14 c-3 -5 -1 -10 5 -10 15 0 9 -52 -7 -57 -6 -2
-17 5 -23 17 -9 18 -8 25 6 41 18 20 29 26 19 9z"/>
<path d="M1587 1158 c2 -5 24 -8 48 -8 24 0 46 3 48 8 3 4 -19 7 -48 7 -29 0
-51 -3 -48 -7z"/>
<path d="M547 1153 c-6 -11 1 -114 8 -121 3 -3 5 25 5 61 0 63 -3 77 -13 60z"/>
<path d="M1471 1068 c-1 -21 5 -29 24 -34 35 -9 55 2 54 28 l0 23 -10 -23
c-12 -32 -51 -26 -60 8 l-7 25 -1 -27z"/>
<path d="M2836 1078 c-12 -43 -21 -138 -13 -138 5 0 4 -7 -3 -16 -11 -12 -10
-18 3 -32 16 -15 17 -14 18 13 0 17 3 65 5 108 3 42 3 77 -1 77 -3 0 -7 -6 -9
-12z"/>
<path d="M1432 1035 c-2 -41 8 -53 48 -61 24 -5 31 -4 26 4 -4 7 -16 12 -27
12 -11 0 -18 4 -15 9 4 6 17 5 34 -1 22 -8 34 -7 62 9 19 11 36 28 37 39 2 10
0 13 -3 7 -3 -7 -14 -13 -24 -13 -11 0 -24 -9 -30 -20 -13 -24 -36 -26 -44 -4
-4 11 -13 14 -30 10 -20 -5 -25 -2 -29 16 -3 18 -5 16 -5 -7z"/>
<path d="M1988 1045 c4 -5 5 -18 4 -27 -2 -10 2 -18 8 -18 6 0 8 5 5 10 -3 6
2 10 12 10 17 1 17 1 -1 11 -15 9 -16 13 -5 20 10 6 8 8 -8 6 -12 0 -19 -6
-15 -12z"/>
<path d="M2914 960 c0 -58 1 -81 3 -52 2 28 2 76 0 105 -2 28 -3 5 -3 -53z"/>
<path d="M210 954 c0 -41 4 -73 8 -70 5 3 7 32 6 65 -1 41 3 62 12 65 7 3 15
-3 17 -12 3 -12 5 -11 6 6 1 17 -4 22 -24 22 -24 0 -25 -2 -25 -76z"/>
<path d="M547 1013 c-6 -12 -1 -103 7 -110 3 -3 6 21 6 55 0 58 -3 73 -13 55z"/>
<path d="M1663 998 c9 -47 -234 -75 -277 -32 -18 17 -26 18 -26 2 0 -18 96
-60 150 -65 40 -4 52 0 108 36 34 22 62 35 62 28 0 -6 5 -4 11 6 5 9 7 22 4
27 -9 14 -36 12 -32 -2z m-87 -73 c-22 -17 -92 -20 -101 -6 -3 6 17 12 47 14
29 2 58 4 63 5 6 1 1 -5 -9 -13z"/>
<path d="M1991 973 c-1 -14 7 -24 22 -29 12 -4 25 -12 29 -18 5 -7 8 -4 8 7 0
10 -8 17 -20 17 -12 0 -24 10 -30 23 l-9 22 0 -22z"/>
<path d="M2146 958 c3 -4 -4 -8 -15 -8 -11 0 -22 -4 -25 -9 -4 -5 3 -7 14 -4
11 3 20 0 20 -6 0 -6 5 -11 11 -11 5 0 7 5 4 11 -4 6 1 16 10 23 15 11 15 12
-4 12 -11 0 -17 -4 -15 -8z"/>
<path d="M1906 928 c5 -8 1 -9 -12 -5 -16 6 -16 4 3 -10 12 -10 38 -49 58 -86
19 -38 35 -62 35 -54 0 8 -13 39 -30 70 -20 38 -25 54 -15 51 8 -4 13 -10 10
-14 -3 -4 2 -13 10 -20 9 -7 20 -32 26 -57 6 -24 16 -46 22 -50 6 -4 8 3 4 18
-4 13 -7 33 -7 44 0 11 -10 36 -22 55 -12 19 -22 39 -23 43 0 12 -27 27 -48
27 -11 0 -15 -4 -11 -12z"/>
<path d="M2715 920 c-6 -9 1 -14 18 -11 4 0 7 -8 7 -19 0 -22 -16 -27 -23 -7
-2 6 -3 -5 -3 -25 1 -21 5 -38 10 -38 4 0 6 6 3 14 -6 15 16 40 26 30 3 -3 4
2 2 13 -2 10 -4 26 -4 36 -1 18 -26 23 -36 7z"/>
<path d="M1580 895 c-40 -29 -80 -32 -117 -7 l-27 17 24 -32 c33 -46 67 -44
122 7 49 45 48 52 -2 15z"/>
<path d="M220 851 c0 -5 9 -7 20 -4 14 4 20 0 20 -12 0 -12 -6 -16 -20 -12
-19 5 -20 0 -20 -94 l0 -99 28 1 c23 2 24 2 5 6 -18 3 -23 11 -23 34 0 35 26
40 33 7 2 -13 4 0 4 27 0 28 -2 40 -4 28 -7 -35 -33 -29 -33 8 0 26 3 31 20
26 11 -3 20 -1 20 4 0 5 -9 9 -20 9 -11 0 -20 7 -20 15 0 18 26 20 33 3 3 -7
6 4 6 25 1 33 -2 37 -24 37 -14 0 -25 -4 -25 -9z"/>
<path d="M1927 790 c3 -30 7 -57 9 -59 8 -9 2 75 -6 94 -6 13 -7 1 -3 -35z"/>
<path d="M1617 732 c-42 -43 -62 -72 -38 -58 11 7 94 106 89 106 -2 0 -25 -22
-51 -48z"/>
<path d="M303 700 c0 -41 2 -58 4 -37 2 20 2 54 0 75 -2 20 -4 3 -4 -38z"/>
<path d="M30 655 c0 -49 3 -86 6 -82 7 7 6 158 -1 165 -3 3 -5 -34 -5 -83z"/>
<path d="M2353 733 c4 -3 30 -5 58 -4 39 1 55 -3 65 -16 13 -17 15 -17 25 0
14 23 38 22 65 -4 28 -27 74 -20 74 11 0 19 -7 20 -147 20 -80 0 -143 -3 -140
-7z"/>
<path d="M1967 713 c-2 -4 -7 -21 -11 -37 -4 -17 -16 -42 -27 -57 -10 -15 -19
-31 -19 -35 0 -16 50 60 61 93 10 31 8 56 -4 36z"/>
<path d="M2820 672 c0 -23 4 -42 10 -42 10 0 8 65 -3 76 -4 4 -7 -11 -7 -34z"/>
<path d="M1250 690 c0 -13 89 -101 130 -128 30 -20 29 -18 -10 18 -25 22 -62
58 -82 80 -21 22 -38 35 -38 30z"/>
<path d="M1684 681 c-17 -10 -40 -22 -52 -25 -18 -6 -21 -4 -15 11 6 16 5 16
-11 4 -13 -11 -14 -16 -4 -22 7 -5 21 -6 31 -3 13 4 17 -1 18 -18 1 -23 1 -23
8 2 4 14 22 35 40 47 41 28 29 31 -15 4z"/>
<path d="M2255 670 c-22 -9 -19 -10 39 -15 36 -2 38 -1 21 11 -21 16 -31 16
-60 4z"/>
<path d="M2358 662 c-15 -18 -2 -27 17 -12 9 8 15 8 15 2 0 -6 -9 -14 -20 -17
-13 -4 -20 -15 -20 -31 0 -23 -3 -24 -59 -24 -33 0 -62 -3 -64 -7 -3 -5 36 -6
86 -4 51 3 82 6 70 8 -28 5 -29 17 -3 43 20 20 43 22 70 5 9 -5 8 0 -4 13
l-19 22 34 -6 c19 -4 37 -11 40 -17 4 -5 9 -5 13 2 4 6 12 11 18 11 6 0 3 -9
-7 -20 -22 -24 -12 -39 15 -22 28 17 46 16 30 -3 -10 -12 -10 -15 1 -15 8 0
20 10 28 21 11 19 11 21 -1 16 -8 -3 -21 -1 -29 4 -11 7 -10 9 4 9 12 0 16 4
11 13 -6 9 -4 9 8 -1 11 -9 18 -10 23 -2 10 16 -10 19 -133 22 -83 2 -117 0
-124 -10z"/>
<path d="M2234 546 c-3 -8 -4 -23 -1 -33 3 -12 5 -8 6 10 0 15 5 27 9 27 20 0
32 -28 32 -74 0 -79 12 -159 21 -145 6 11 12 10 26 -3 10 -8 35 -18 56 -21 30
-5 37 -3 36 11 0 9 -3 12 -5 6 -6 -15 -64 -5 -71 12 -3 8 -13 14 -23 14 -12 0
-20 10 -24 31 -7 37 -7 140 1 121 3 -8 10 -6 22 9 16 20 18 20 53 4 32 -16 36
-21 34 -54 -1 -20 -5 -42 -9 -49 -6 -8 -3 -10 7 -6 22 9 22 99 0 108 -8 3 -13
10 -10 14 6 10 -36 32 -59 32 -7 0 -21 -7 -29 -16 -15 -14 -17 -14 -32 0 -19
20 -33 20 -40 2z"/>
<path d="M309 543 c-10 -2 -19 -17 -21 -33 -2 -16 -1 -27 4 -24 4 3 8 11 8 19
0 8 8 18 17 24 21 11 16 19 -8 14z"/>
<path d="M1878 530 c-7 -11 -18 -20 -25 -20 -7 0 -13 -4 -13 -10 0 -5 -6 -8
-12 -6 -7 1 -11 1 -8 -1 3 -1 4 -77 2 -168 -3 -125 0 -179 12 -225 9 -34 16
-70 16 -81 0 -23 13 -25 30 -4 10 12 9 15 -5 15 -26 0 -12 23 20 33 16 6 37
19 45 30 16 19 18 18 61 -37 24 -31 49 -56 56 -56 11 0 -35 70 -118 180 -10
14 -28 42 -39 63 -23 42 -40 48 -40 14 0 -22 20 -57 47 -85 14 -14 28 -60 21
-67 -2 -2 -22 -7 -44 -11 -31 -4 -41 -3 -41 7 0 8 -3 54 -7 104 -4 49 -4 87 0
83 10 -11 46 11 38 23 -3 6 -15 9 -25 6 -11 -3 -19 -1 -19 4 0 5 8 9 19 9 17
0 17 2 3 46 -12 38 -13 50 -3 67 11 17 11 19 -3 14 -13 -5 -15 -3 -7 12 6 10
17 24 26 31 17 14 39 50 30 50 -2 0 -10 -9 -17 -20z"/>
<path d="M2472 534 c-12 -8 -22 -23 -21 -32 0 -13 3 -11 9 5 9 21 22 27 80 36
18 3 16 5 -10 6 -20 0 -46 -6 -58 -15z"/>
<path d="M2578 482 c6 -75 12 -80 12 -9 0 31 -4 58 -8 61 -5 3 -6 -21 -4 -52z"/>
<path d="M2477 503 c-4 -3 -7 -26 -7 -50 0 -30 -4 -42 -11 -37 -6 3 -9 17 -6
30 2 13 0 21 -4 18 -12 -7 -11 -41 1 -49 5 -3 7 -13 4 -23 -5 -14 -4 -15 5 -2
9 12 11 11 12 -10 1 -16 3 -19 6 -8 2 9 10 15 17 12 7 -3 19 2 26 10 7 9 16
13 21 10 5 -3 9 19 8 48 l-1 53 -9 -44 c-8 -44 -21 -61 -47 -61 -10 0 -13 14
-10 55 1 30 3 55 2 55 0 0 -4 -3 -7 -7z"/>
<path d="M1346 443 c8 -59 14 -67 15 -22 1 23 3 27 6 12 2 -13 9 -23 15 -23 5
0 7 -7 4 -16 -3 -8 -2 -13 3 -10 12 8 26 -114 15 -123 -5 -3 -17 -23 -27 -44
-9 -21 -22 -35 -27 -32 -6 4 -10 -6 -10 -23 0 -31 -62 -122 -83 -122 -8 0 -8
-3 2 -9 11 -7 10 -11 -5 -20 -18 -10 -18 -10 2 -11 27 0 56 41 113 161 27 54
51 96 54 93 3 -3 3 5 0 18 -3 13 -1 18 4 11 4 -6 8 15 8 51 0 57 -3 65 -40
109 -21 26 -43 47 -48 47 -4 0 -5 -21 -1 -47z"/>
<path d="M152 380 c-9 -19 -22 -30 -40 -33 l-27 -4 26 -2 c29 -1 72 38 61 56
-5 8 -12 2 -20 -17z"/>
<path d="M1350 315 c0 -19 -7 -52 -15 -72 -18 -41 -20 -67 -3 -38 6 11 15 23
20 26 14 9 22 105 9 113 -7 5 -11 -5 -11 -29z"/>
<path d="M2471 318 c0 -20 -5 -40 -11 -43 -5 -3 -10 -12 -10 -18 0 -7 4 -6 10
3 7 11 10 -3 9 -45 0 -43 -3 -54 -9 -40 -8 19 -9 19 -9 -2 -1 -14 5 -23 14
-23 12 0 15 14 15 70 0 49 4 70 13 70 9 0 9 2 1 8 -7 4 -14 18 -17 32 -3 19
-5 16 -6 -12z"/>
<path d="M1556 290 c20 -25 28 -100 13 -126 -13 -26 -4 -48 11 -24 7 12 12 11
31 -5 l22 -20 -12 22 c-6 12 -11 37 -11 55 0 50 -9 71 -38 93 -15 10 -22 13
-16 5z"/>
<path d="M2261 207 c-1 -10 8 -38 19 -63 24 -52 40 -55 115 -20 l50 24 -36 -1
c-21 -1 -35 -4 -34 -7 2 -4 -5 -11 -15 -18 -16 -10 -21 -9 -29 6 -7 10 -11 12
-11 4 0 -22 -20 -2 -21 21 0 15 -2 18 -7 7 -4 -10 -10 -1 -18 25 -7 22 -13 32
-13 22z"/>
<path d="M1112 125 c-51 -42 -128 -75 -177 -75 -12 0 -43 6 -68 14 -26 8 -45
10 -42 5 8 -12 74 -29 117 -29 43 0 130 31 162 57 16 14 15 11 -4 -11 -14 -16
-20 -26 -13 -22 6 3 14 2 18 -3 9 -15 -35 -35 -48 -22 -6 6 -15 11 -21 11 -5
0 -1 -7 10 -15 13 -10 15 -14 5 -15 -8 0 -12 -3 -9 -6 10 -10 61 23 98 61 31
34 32 36 8 20 -16 -9 -28 -22 -28 -28 0 -6 -3 -7 -7 -4 -3 4 2 17 13 30 17 18
49 78 41 76 -1 0 -26 -20 -55 -44z"/>
<path d="M719 143 c4 -10 14 -32 21 -49 15 -35 111 -95 151 -93 23 1 23 1 -4
11 -15 5 -25 14 -21 19 3 5 -3 9 -14 9 -19 0 -62 39 -62 56 0 5 -11 22 -25 37
-30 31 -59 37 -46 10z"/>
<path d="M1393 60 c-39 -73 -25 -80 19 -10 30 48 32 50 50 33 16 -14 21 -15
28 -3 5 8 6 18 3 23 -3 5 4 4 16 -3 12 -6 19 -15 16 -20 -4 -6 7 -7 27 -3 42
8 48 13 17 13 -13 0 -33 7 -43 15 -11 8 -38 15 -60 15 -40 0 -42 -2 -73 -60z"/>
<path d="M1481 28 c9 -21 19 -28 38 -27 15 0 20 3 11 6 -8 3 -26 15 -38 27
l-24 21 13 -27z"/>
</g>
</svg>
