<?xml version="1.0" standalone="no"?>
<!DOCTYPE svg PUBLIC "-//W3C//DTD SVG 20010904//EN"
 "http://www.w3.org/TR/2001/REC-SVG-20010904/DTD/svg10.dtd">
<svg version="1.0" xmlns="http://www.w3.org/2000/svg"
 width="50.000000pt" height="33.000000pt" viewBox="0 0 50.000000 33.000000"
 preserveAspectRatio="xMidYMid meet">
<metadata>
Created by potrace 1.10, written by Peter Selinger 2001-2011
</metadata>
<g transform="translate(0.000000,33.000000) scale(0.100000,-0.100000)"
fill="#000000" stroke="none">
<path d="M40 293 c0 -24 -8 -45 -21 -59 -12 -12 -18 -27 -14 -33 9 -16 25 -3
25 20 0 10 5 19 10 19 6 0 10 -6 10 -12 0 -10 2 -10 8 -1 10 16 2 103 -9 103
-5 0 -9 -17 -9 -37z"/>
<path d="M205 321 c-3 -6 8 -8 28 -4 19 3 44 0 55 -6 18 -10 21 -9 16 4 -7 17
-89 22 -99 6z"/>
<path d="M370 288 c0 -42 1 -43 33 -44 32 -1 32 -1 6 10 -21 9 -25 17 -24 44
1 17 -2 32 -7 32 -4 0 -8 -19 -8 -42z"/>
<path d="M330 273 c0 -28 3 -34 10 -23 13 20 13 60 0 60 -5 0 -10 -17 -10 -37z"/>
<path d="M146 292 c18 -12 23 -39 15 -70 -5 -16 -5 -35 0 -43 8 -12 14 27 12
79 -1 6 4 12 9 12 5 0 3 7 -6 15 -8 8 -21 15 -28 15 -8 0 -9 -3 -2 -8z"/>
<path d="M223 258 c-2 -15 3 -19 18 -15 10 3 17 1 13 -4 -3 -5 -16 -9 -30 -9
-21 0 -24 4 -19 23 5 20 5 20 -6 4 -18 -29 -4 -153 21 -184 11 -14 20 -20 20
-13 0 8 -8 23 -17 34 -18 21 -18 21 5 2 12 -11 22 -25 22 -32 0 -19 49 -10 72
14 11 11 18 26 15 33 -3 9 -9 4 -16 -13 -13 -33 -25 -38 -15 -5 4 12 8 48 8
80 2 52 0 58 -21 63 -12 3 -21 11 -20 16 1 6 -9 14 -23 18 -21 6 -26 4 -27
-12z m37 -53 c0 -8 5 -15 11 -15 6 0 8 8 5 18 -5 14 -4 14 9 -2 17 -23 19 -42
5 -51 -5 -3 -7 -19 -3 -35 5 -25 2 -30 -15 -30 -22 0 -47 24 -38 38 3 6 -1 15
-9 22 -21 17 -19 57 3 63 30 8 32 7 32 -8z"/>
<path d="M87 254 c-3 -3 -3 -13 0 -21 3 -8 0 -19 -8 -24 -11 -7 -11 -9 -1 -9
8 0 16 9 19 21 4 15 11 19 27 15 20 -5 21 -5 2 9 -22 16 -30 18 -39 9z"/>
<path d="M344 186 c-11 -45 2 -61 51 -62 45 -2 45 -2 45 32 0 35 -13 46 -24
18 -3 -8 -2 -12 4 -9 6 3 10 -1 10 -9 0 -11 -8 -15 -24 -14 -14 1 -22 7 -19
14 2 7 0 15 -6 19 -6 3 -11 -1 -11 -9 0 -9 -5 -16 -11 -16 -7 0 -9 11 -5 30 7
36 -1 41 -10 6z"/>
<path d="M80 175 c0 -8 -4 -15 -8 -15 -13 0 -10 -25 5 -38 11 -11 13 -6 13 28
0 22 -2 40 -5 40 -3 0 -5 -7 -5 -15z"/>
<path d="M10 130 c0 -29 3 -50 7 -46 7 7 5 87 -3 95 -2 2 -4 -20 -4 -49z"/>
<path d="M147 128 c-6 -22 -6 -22 -27 -3 l-22 20 12 -27 c9 -20 10 -34 2 -58
-14 -38 -6 -60 21 -60 21 0 21 0 1 16 -17 14 -17 15 -1 10 10 -3 25 -6 33 -6
9 0 12 -5 8 -12 -4 -8 -3 -10 2 -5 9 9 10 11 13 45 2 15 3 15 10 -2 6 -16 9
-17 13 -5 4 9 -2 21 -14 28 -11 7 -18 8 -14 3 3 -5 -1 -17 -8 -27 -19 -26 -46
-12 -46 23 0 32 22 58 40 47 15 -9 12 11 -4 24 -11 9 -15 7 -19 -11z"/>
<path d="M450 109 c0 -7 -11 -9 -30 -5 -17 3 -30 1 -30 -4 0 -6 16 -10 35 -10
24 0 35 5 35 15 0 8 -2 15 -5 15 -3 0 -5 -5 -5 -11z"/>
<path d="M339 70 c-8 -25 -15 -36 -20 -29 -4 7 -6 0 -6 -14 1 -15 8 -27 15
-27 8 0 10 5 6 13 -6 9 -4 9 7 -1 17 -16 37 -16 21 0 -15 15 -16 48 -2 48 6 0
10 11 10 25 0 38 -18 30 -31 -15z"/>
<path d="M416 51 c-17 -11 -33 -18 -38 -15 -4 3 -8 0 -8 -5 0 -19 60 -13 67 7
4 9 11 20 17 24 25 18 -11 6 -38 -11z"/>
<path d="M490 49 c0 -6 -7 -9 -15 -5 -8 3 -15 0 -15 -6 0 -6 -7 -16 -16 -23
-15 -11 -15 -12 0 -12 9 0 16 4 16 9 0 4 9 8 20 8 13 0 20 7 20 20 0 11 -2 20
-5 20 -3 0 -5 -5 -5 -11z"/>
</g>
</svg>
